<mxfile host="app.diagrams.net" modified="2020-12-26T16:07:52.708Z" agent="5.0 (Windows NT 10.0; Win64; x64) AppleWebKit/537.36 (KHTML, like Gecko) Chrome/87.0.4280.88 Safari/537.36" etag="h1u98AR3kehCPYUlxIzk" version="14.1.2" type="github">
  <diagram id="5Zijp5EhLIPOIet4tf9c" name="Page-1">
    <mxGraphModel dx="2858" dy="1089" grid="1" gridSize="10" guides="1" tooltips="1" connect="1" arrows="1" fold="1" page="1" pageScale="1" pageWidth="827" pageHeight="1169" math="0" shadow="0">
      <root>
        <mxCell id="0" />
        <mxCell id="1" parent="0" />
        <mxCell id="5XFd4NHmLhsVX-3_RDAw-69" value="" style="rounded=1;whiteSpace=wrap;html=1;strokeWidth=3;align=left;fillColor=#f5f5f5;strokeColor=#666666;fontColor=#333333;" vertex="1" parent="1">
          <mxGeometry x="355" y="730" width="300" height="345" as="geometry" />
        </mxCell>
        <mxCell id="5XFd4NHmLhsVX-3_RDAw-28" value="" style="rounded=1;whiteSpace=wrap;html=1;strokeWidth=3;align=left;fillColor=#f5f5f5;strokeColor=#666666;fontColor=#333333;" vertex="1" parent="1">
          <mxGeometry x="740" y="465" width="260" height="250" as="geometry" />
        </mxCell>
        <mxCell id="5XFd4NHmLhsVX-3_RDAw-54" value="" style="rounded=1;whiteSpace=wrap;html=1;strokeWidth=3;align=left;fillColor=#f5f5f5;strokeColor=#666666;fontColor=#333333;" vertex="1" parent="1">
          <mxGeometry x="355" y="313.75" width="300" height="340" as="geometry" />
        </mxCell>
        <mxCell id="5XFd4NHmLhsVX-3_RDAw-27" value="" style="rounded=1;whiteSpace=wrap;html=1;strokeWidth=3;align=left;fillColor=#f5f5f5;strokeColor=#666666;fontColor=#333333;" vertex="1" parent="1">
          <mxGeometry x="50" y="240" width="250" height="460" as="geometry" />
        </mxCell>
        <mxCell id="5XFd4NHmLhsVX-3_RDAw-3" value="Interface" style="rounded=1;whiteSpace=wrap;html=1;fillColor=#d5e8d4;strokeColor=#82b366;" vertex="1" parent="1">
          <mxGeometry y="40" width="50" height="20" as="geometry" />
        </mxCell>
        <mxCell id="5XFd4NHmLhsVX-3_RDAw-4" value="java" style="rounded=1;whiteSpace=wrap;html=1;fillColor=#dae8fc;strokeColor=#6c8ebf;" vertex="1" parent="1">
          <mxGeometry y="20" width="50" height="20" as="geometry" />
        </mxCell>
        <mxCell id="5XFd4NHmLhsVX-3_RDAw-5" value="xml" style="rounded=1;whiteSpace=wrap;html=1;" vertex="1" parent="1">
          <mxGeometry width="50" height="20" as="geometry" />
        </mxCell>
        <mxCell id="5XFd4NHmLhsVX-3_RDAw-7" value="&lt;b&gt;&lt;font style=&quot;font-size: 15px&quot;&gt;applicationContext.xml&lt;/font&gt;&lt;/b&gt;" style="rounded=1;whiteSpace=wrap;html=1;fontSize=12;glass=0;strokeWidth=3;shadow=0;" vertex="1" parent="1">
          <mxGeometry x="80" y="210" width="190" height="30" as="geometry" />
        </mxCell>
        <mxCell id="5XFd4NHmLhsVX-3_RDAw-9" value="&lt;div&gt;&lt;b&gt;&amp;lt; bean &amp;gt;&amp;nbsp;&lt;/b&gt;&lt;/div&gt;&lt;div&gt;&lt;b&gt;Name&lt;/b&gt; &quot;messageBeanImpl2&quot;&amp;nbsp;&lt;/div&gt;&lt;div&gt;&lt;b&gt;Class&lt;/b&gt;&amp;nbsp;&quot;MessageBeanImpl&quot;&lt;/div&gt;" style="rounded=1;whiteSpace=wrap;html=1;fontSize=12;glass=0;strokeWidth=3;shadow=0;fillColor=#ffe6cc;strokeColor=#d79b00;align=left;spacingLeft=15;labelBorderColor=none;horizontal=1;verticalAlign=top;" vertex="1" parent="1">
          <mxGeometry x="90" y="270" width="180" height="200" as="geometry" />
        </mxCell>
        <mxCell id="5XFd4NHmLhsVX-3_RDAw-99" style="edgeStyle=orthogonalEdgeStyle;rounded=1;jumpSize=6;orthogonalLoop=1;jettySize=auto;html=1;exitX=1;exitY=0.5;exitDx=0;exitDy=0;entryX=0;entryY=0.5;entryDx=0;entryDy=0;endArrow=block;endFill=1;" edge="1" parent="1" source="5XFd4NHmLhsVX-3_RDAw-10" target="5XFd4NHmLhsVX-3_RDAw-56">
          <mxGeometry relative="1" as="geometry" />
        </mxCell>
        <mxCell id="5XFd4NHmLhsVX-3_RDAw-10" value="&lt;div&gt;&lt;b&gt;&amp;lt;constructor-arg&amp;gt;&lt;/b&gt;&lt;/div&gt;&lt;b&gt;&lt;div&gt;&lt;b&gt;value &quot;홍길동&quot;&lt;/b&gt;&lt;/div&gt;&lt;/b&gt;" style="rounded=1;whiteSpace=wrap;html=1;fontSize=12;glass=0;strokeWidth=1;shadow=0;fillColor=#f5f5f5;strokeColor=#666666;fontColor=#333333;align=left;spacingTop=0;spacingLeft=5;" vertex="1" parent="1">
          <mxGeometry x="100" y="320" width="160" height="40" as="geometry" />
        </mxCell>
        <mxCell id="5XFd4NHmLhsVX-3_RDAw-98" style="edgeStyle=orthogonalEdgeStyle;jumpSize=6;orthogonalLoop=1;jettySize=auto;html=1;exitX=1;exitY=0.5;exitDx=0;exitDy=0;entryX=0;entryY=0.5;entryDx=0;entryDy=0;endArrow=block;endFill=1;rounded=1;" edge="1" parent="1" source="5XFd4NHmLhsVX-3_RDAw-11" target="5XFd4NHmLhsVX-3_RDAw-60">
          <mxGeometry relative="1" as="geometry" />
        </mxCell>
        <mxCell id="5XFd4NHmLhsVX-3_RDAw-11" value="&lt;div&gt;&lt;b&gt;&amp;lt;property&amp;gt;&lt;/b&gt;&lt;/div&gt;&lt;div&gt;&lt;b style=&quot;font-weight: bold&quot;&gt;name &lt;/b&gt;&quot;phone&quot;&lt;/div&gt;&lt;div&gt;&lt;b&gt;value &lt;/b&gt;&quot;010-123-1234&quot;&lt;/div&gt;" style="rounded=1;whiteSpace=wrap;html=1;fontSize=12;glass=0;strokeWidth=1;shadow=0;fillColor=#f5f5f5;strokeColor=#666666;fontColor=#333333;align=left;spacingTop=0;spacingLeft=5;" vertex="1" parent="1">
          <mxGeometry x="100" y="360" width="160" height="50" as="geometry" />
        </mxCell>
        <mxCell id="5XFd4NHmLhsVX-3_RDAw-26" style="edgeStyle=orthogonalEdgeStyle;curved=1;jumpSize=6;orthogonalLoop=1;jettySize=auto;html=1;exitX=-0.001;exitY=0.804;exitDx=0;exitDy=0;entryX=0;entryY=0.165;entryDx=0;entryDy=0;endArrow=block;endFill=1;entryPerimeter=0;exitPerimeter=0;" edge="1" parent="1" source="5XFd4NHmLhsVX-3_RDAw-12" target="5XFd4NHmLhsVX-3_RDAw-18">
          <mxGeometry relative="1" as="geometry">
            <Array as="points">
              <mxPoint x="60" y="450" />
              <mxPoint x="60" y="528" />
            </Array>
          </mxGeometry>
        </mxCell>
        <mxCell id="5XFd4NHmLhsVX-3_RDAw-100" style="edgeStyle=orthogonalEdgeStyle;rounded=1;jumpSize=6;orthogonalLoop=1;jettySize=auto;html=1;exitX=1;exitY=0.5;exitDx=0;exitDy=0;entryX=0;entryY=0.5;entryDx=0;entryDy=0;endArrow=block;endFill=1;" edge="1" parent="1" source="5XFd4NHmLhsVX-3_RDAw-12" target="5XFd4NHmLhsVX-3_RDAw-63">
          <mxGeometry relative="1" as="geometry" />
        </mxCell>
        <mxCell id="5XFd4NHmLhsVX-3_RDAw-12" value="&lt;div&gt;&lt;b&gt;&amp;lt;property&amp;gt;&lt;/b&gt;&lt;/div&gt;&lt;div&gt;&lt;b style=&quot;font-weight: bold&quot;&gt;name &lt;/b&gt;&quot;outputter&quot;&lt;/div&gt;&lt;div&gt;&lt;b&gt;&lt;font color=&quot;#3399ff&quot;&gt;ref&lt;/font&gt;&amp;nbsp; &amp;nbsp; &amp;nbsp;&lt;/b&gt;&quot;fileOutputter&quot;&lt;/div&gt;" style="rounded=1;whiteSpace=wrap;html=1;fontSize=12;glass=0;strokeWidth=1;shadow=0;fillColor=#f5f5f5;strokeColor=#666666;fontColor=#333333;align=left;spacingTop=0;spacingLeft=5;" vertex="1" parent="1">
          <mxGeometry x="100" y="410" width="160" height="50" as="geometry" />
        </mxCell>
        <mxCell id="5XFd4NHmLhsVX-3_RDAw-18" value="&lt;div&gt;&lt;b&gt;&amp;lt; bean &amp;gt;&amp;nbsp;&lt;/b&gt;&lt;/div&gt;&lt;div&gt;&lt;b&gt;Name&lt;/b&gt; &quot;fileOutputter&quot;&amp;nbsp;&lt;/div&gt;&lt;div&gt;&lt;b&gt;Class&lt;/b&gt;&amp;nbsp;&quot;FileOutputter&quot;&lt;/div&gt;" style="rounded=1;whiteSpace=wrap;html=1;fontSize=12;glass=0;strokeWidth=3;shadow=0;fillColor=#ffe6cc;strokeColor=#d79b00;align=left;spacingLeft=15;labelBorderColor=none;horizontal=1;verticalAlign=top;arcSize=13;" vertex="1" parent="1">
          <mxGeometry x="90" y="500" width="180" height="170" as="geometry" />
        </mxCell>
        <mxCell id="5XFd4NHmLhsVX-3_RDAw-101" style="edgeStyle=orthogonalEdgeStyle;rounded=1;jumpSize=6;orthogonalLoop=1;jettySize=auto;html=1;exitX=1;exitY=0.5;exitDx=0;exitDy=0;entryX=0;entryY=0.5;entryDx=0;entryDy=0;endArrow=block;endFill=1;" edge="1" parent="1" source="5XFd4NHmLhsVX-3_RDAw-20" target="5XFd4NHmLhsVX-3_RDAw-71">
          <mxGeometry relative="1" as="geometry" />
        </mxCell>
        <mxCell id="5XFd4NHmLhsVX-3_RDAw-20" value="&lt;div&gt;&lt;b&gt;&amp;lt;property&amp;gt;&lt;/b&gt;&lt;/div&gt;&lt;div&gt;&lt;b style=&quot;font-weight: bold&quot;&gt;name &lt;/b&gt;&quot;filePath&quot;&lt;/div&gt;&lt;div&gt;&lt;b&gt;value &lt;/b&gt;&quot;D:/&quot;&lt;/div&gt;" style="rounded=1;whiteSpace=wrap;html=1;fontSize=12;glass=0;strokeWidth=1;shadow=0;fillColor=#f5f5f5;strokeColor=#666666;fontColor=#333333;align=left;spacingTop=0;spacingLeft=5;" vertex="1" parent="1">
          <mxGeometry x="100" y="555" width="160" height="50" as="geometry" />
        </mxCell>
        <mxCell id="5XFd4NHmLhsVX-3_RDAw-102" style="edgeStyle=orthogonalEdgeStyle;rounded=1;jumpSize=6;orthogonalLoop=1;jettySize=auto;html=1;exitX=1;exitY=0.5;exitDx=0;exitDy=0;entryX=0;entryY=0.5;entryDx=0;entryDy=0;endArrow=block;endFill=1;" edge="1" parent="1" source="5XFd4NHmLhsVX-3_RDAw-21" target="5XFd4NHmLhsVX-3_RDAw-73">
          <mxGeometry relative="1" as="geometry" />
        </mxCell>
        <mxCell id="5XFd4NHmLhsVX-3_RDAw-21" value="&lt;div&gt;&lt;b&gt;&amp;lt;property&amp;gt;&lt;/b&gt;&lt;/div&gt;&lt;div&gt;&lt;b style=&quot;font-weight: bold&quot;&gt;name &lt;/b&gt;&quot;filePath&quot;&lt;/div&gt;&lt;b&gt;value&amp;nbsp;&lt;/b&gt;&lt;span&gt;&quot;result.txt&quot;&lt;/span&gt;&lt;b&gt;&lt;br&gt;&lt;/b&gt;" style="rounded=1;whiteSpace=wrap;html=1;fontSize=12;glass=0;strokeWidth=1;shadow=0;fillColor=#f5f5f5;strokeColor=#666666;fontColor=#333333;align=left;spacingTop=0;spacingLeft=5;" vertex="1" parent="1">
          <mxGeometry x="100" y="605" width="160" height="50" as="geometry" />
        </mxCell>
        <mxCell id="5XFd4NHmLhsVX-3_RDAw-29" value="&lt;b&gt;&lt;font style=&quot;font-size: 15px&quot;&gt;HelloSpring.java&lt;/font&gt;&lt;/b&gt;" style="rounded=1;whiteSpace=wrap;html=1;fontSize=12;glass=0;strokeWidth=3;shadow=0;fillColor=#dae8fc;strokeColor=#6c8ebf;" vertex="1" parent="1">
          <mxGeometry x="770" y="435" width="190" height="30" as="geometry" />
        </mxCell>
        <mxCell id="5XFd4NHmLhsVX-3_RDAw-30" value="&lt;div&gt;&lt;b&gt;[ main ]&amp;nbsp;&lt;/b&gt;&lt;/div&gt;&lt;div&gt;&lt;br&gt;&lt;/div&gt;&lt;div&gt;&lt;br&gt;&lt;/div&gt;" style="rounded=1;whiteSpace=wrap;html=1;fontSize=12;glass=0;strokeWidth=3;shadow=0;fillColor=#ffe6cc;strokeColor=#d79b00;align=left;spacingLeft=15;labelBorderColor=none;horizontal=1;verticalAlign=top;" vertex="1" parent="1">
          <mxGeometry x="770" y="495" width="200" height="190" as="geometry" />
        </mxCell>
        <mxCell id="5XFd4NHmLhsVX-3_RDAw-31" value="&lt;div&gt;&lt;b&gt;ApplicationContext&lt;/b&gt;&lt;br&gt;&lt;/div&gt;&quot;applicationContext.xml&quot;" style="rounded=1;whiteSpace=wrap;html=1;fontSize=12;glass=0;strokeWidth=1;shadow=0;fillColor=#f5f5f5;strokeColor=#666666;fontColor=#333333;align=left;spacingTop=0;spacingLeft=5;" vertex="1" parent="1">
          <mxGeometry x="790" y="525" width="160" height="40" as="geometry" />
        </mxCell>
        <mxCell id="5XFd4NHmLhsVX-3_RDAw-32" value="&lt;div&gt;&lt;b&gt;MessageBean&lt;/b&gt;&lt;br&gt;&lt;/div&gt;&lt;div&gt;messageBean =&amp;nbsp;&lt;br&gt;&lt;/div&gt;&lt;div&gt;&lt;b&gt;context.getBean(&lt;/b&gt;&lt;br&gt;&lt;/div&gt;&lt;div&gt;&quot;messageBeanImpl2&quot;&lt;b&gt;)&lt;/b&gt;&lt;br&gt;&lt;/div&gt;" style="rounded=1;whiteSpace=wrap;html=1;fontSize=12;glass=0;strokeWidth=1;shadow=0;fillColor=#f5f5f5;strokeColor=#666666;fontColor=#333333;align=left;spacingTop=0;spacingLeft=5;" vertex="1" parent="1">
          <mxGeometry x="790" y="565" width="160" height="60" as="geometry" />
        </mxCell>
        <mxCell id="5XFd4NHmLhsVX-3_RDAw-95" style="edgeStyle=orthogonalEdgeStyle;jumpSize=6;orthogonalLoop=1;jettySize=auto;html=1;exitX=0;exitY=0.5;exitDx=0;exitDy=0;entryX=1;entryY=0.5;entryDx=0;entryDy=0;endArrow=block;endFill=1;rounded=1;" edge="1" parent="1" source="5XFd4NHmLhsVX-3_RDAw-34" target="5XFd4NHmLhsVX-3_RDAw-65">
          <mxGeometry relative="1" as="geometry" />
        </mxCell>
        <mxCell id="5XFd4NHmLhsVX-3_RDAw-34" value="messageBean.helloCall();" style="rounded=1;whiteSpace=wrap;html=1;fontSize=12;glass=0;strokeWidth=1;shadow=0;fillColor=#f5f5f5;strokeColor=#666666;fontColor=#333333;align=left;spacingTop=0;spacingLeft=5;" vertex="1" parent="1">
          <mxGeometry x="790" y="625" width="160" height="30" as="geometry" />
        </mxCell>
        <mxCell id="5XFd4NHmLhsVX-3_RDAw-81" style="edgeStyle=orthogonalEdgeStyle;jumpSize=6;orthogonalLoop=1;jettySize=auto;html=1;exitX=0.5;exitY=1;exitDx=0;exitDy=0;entryX=0.5;entryY=0;entryDx=0;entryDy=0;endArrow=block;endFill=1;curved=1;" edge="1" parent="1" source="5XFd4NHmLhsVX-3_RDAw-39" target="5XFd4NHmLhsVX-3_RDAw-55">
          <mxGeometry relative="1" as="geometry" />
        </mxCell>
        <mxCell id="5XFd4NHmLhsVX-3_RDAw-82" style="edgeStyle=orthogonalEdgeStyle;jumpSize=6;orthogonalLoop=1;jettySize=auto;html=1;exitX=0.5;exitY=1;exitDx=0;exitDy=0;entryX=0.5;entryY=0;entryDx=0;entryDy=0;endArrow=block;endFill=1;strokeColor=none;curved=1;" edge="1" parent="1" source="5XFd4NHmLhsVX-3_RDAw-39" target="5XFd4NHmLhsVX-3_RDAw-70">
          <mxGeometry relative="1" as="geometry" />
        </mxCell>
        <mxCell id="5XFd4NHmLhsVX-3_RDAw-96" style="edgeStyle=orthogonalEdgeStyle;curved=1;jumpSize=6;orthogonalLoop=1;jettySize=auto;html=1;exitX=0.5;exitY=1;exitDx=0;exitDy=0;entryX=0.5;entryY=0;entryDx=0;entryDy=0;endArrow=block;endFill=1;" edge="1" parent="1" source="5XFd4NHmLhsVX-3_RDAw-39" target="5XFd4NHmLhsVX-3_RDAw-29">
          <mxGeometry relative="1" as="geometry" />
        </mxCell>
        <mxCell id="5XFd4NHmLhsVX-3_RDAw-39" value="" style="rounded=1;whiteSpace=wrap;html=1;strokeWidth=3;align=left;fillColor=#f5f5f5;strokeColor=#666666;fontColor=#333333;" vertex="1" parent="1">
          <mxGeometry x="550" y="60" width="250" height="100" as="geometry" />
        </mxCell>
        <mxCell id="5XFd4NHmLhsVX-3_RDAw-40" value="&lt;span style=&quot;font-size: 15px&quot;&gt;&lt;b&gt;Outputter.&lt;/b&gt;&lt;/span&gt;&lt;b style=&quot;font-size: 15px&quot;&gt;interface&lt;/b&gt;" style="rounded=1;whiteSpace=wrap;html=1;fontSize=12;glass=0;strokeWidth=3;shadow=0;fillColor=#d5e8d4;strokeColor=#82b366;" vertex="1" parent="1">
          <mxGeometry x="580" y="30" width="190" height="30" as="geometry" />
        </mxCell>
        <mxCell id="5XFd4NHmLhsVX-3_RDAw-41" value="&lt;div&gt;&lt;b&gt;public void output(&lt;/b&gt;&lt;/div&gt;&lt;div&gt;String message&lt;b&gt;)&lt;/b&gt;&lt;br&gt;&lt;/div&gt;" style="rounded=1;whiteSpace=wrap;html=1;fontSize=12;glass=0;strokeWidth=3;shadow=0;fillColor=#ffe6cc;strokeColor=#d79b00;align=left;spacingLeft=15;labelBorderColor=none;horizontal=1;verticalAlign=top;" vertex="1" parent="1">
          <mxGeometry x="580" y="90" width="190" height="40" as="geometry" />
        </mxCell>
        <mxCell id="5XFd4NHmLhsVX-3_RDAw-55" value="&lt;font&gt;&lt;span style=&quot;font-size: 15px&quot;&gt;&lt;b&gt;MessageBeanImpl.java&lt;/b&gt;&lt;/span&gt;&lt;/font&gt;" style="rounded=1;whiteSpace=wrap;html=1;fontSize=12;glass=0;strokeWidth=3;shadow=0;fillColor=#dae8fc;strokeColor=#6c8ebf;" vertex="1" parent="1">
          <mxGeometry x="405" y="286.25" width="190" height="30" as="geometry" />
        </mxCell>
        <mxCell id="5XFd4NHmLhsVX-3_RDAw-56" value="&lt;div&gt;&lt;b&gt;MessageBeanImpl&lt;/b&gt;(String name)&lt;/div&gt;&lt;br&gt;&lt;div&gt;&lt;br&gt;&lt;/div&gt;" style="rounded=1;whiteSpace=wrap;html=1;fontSize=12;glass=0;strokeWidth=3;shadow=0;fillColor=#ffe6cc;strokeColor=#d79b00;align=left;spacingLeft=15;labelBorderColor=none;horizontal=1;verticalAlign=top;" vertex="1" parent="1">
          <mxGeometry x="395" y="341.25" width="220" height="50" as="geometry" />
        </mxCell>
        <mxCell id="5XFd4NHmLhsVX-3_RDAw-57" value="&lt;b&gt;this.name = name;&lt;/b&gt;&lt;div&gt;&lt;/div&gt;" style="rounded=1;whiteSpace=wrap;html=1;fontSize=12;glass=0;strokeWidth=1;shadow=0;fillColor=#f5f5f5;strokeColor=#666666;fontColor=#333333;align=left;spacingTop=0;spacingLeft=5;" vertex="1" parent="1">
          <mxGeometry x="415" y="366.25" width="170" height="20" as="geometry" />
        </mxCell>
        <mxCell id="5XFd4NHmLhsVX-3_RDAw-60" value="&lt;b&gt;setPhone&lt;/b&gt;&lt;span&gt;(String phone)&lt;/span&gt;&lt;b&gt;&lt;br&gt;&lt;/b&gt;&lt;br&gt;&lt;div&gt;&lt;br&gt;&lt;/div&gt;" style="rounded=1;whiteSpace=wrap;html=1;fontSize=12;glass=0;strokeWidth=3;shadow=0;fillColor=#ffe6cc;strokeColor=#d79b00;align=left;spacingLeft=15;labelBorderColor=none;horizontal=1;verticalAlign=top;" vertex="1" parent="1">
          <mxGeometry x="395" y="401.25" width="220" height="50" as="geometry" />
        </mxCell>
        <mxCell id="5XFd4NHmLhsVX-3_RDAw-61" value="&lt;b&gt;this.phone= phone;&lt;/b&gt;&lt;div&gt;&lt;/div&gt;" style="rounded=1;whiteSpace=wrap;html=1;fontSize=12;glass=0;strokeWidth=1;shadow=0;fillColor=#f5f5f5;strokeColor=#666666;fontColor=#333333;align=left;spacingTop=0;spacingLeft=5;" vertex="1" parent="1">
          <mxGeometry x="415" y="426.25" width="170" height="20" as="geometry" />
        </mxCell>
        <mxCell id="5XFd4NHmLhsVX-3_RDAw-63" value="&lt;span&gt;&lt;b&gt;setOutputter&lt;/b&gt;&lt;/span&gt;(Outputter outputter)&lt;br&gt;&lt;br&gt;&lt;div&gt;&lt;br&gt;&lt;/div&gt;" style="rounded=1;whiteSpace=wrap;html=1;fontSize=12;glass=0;strokeWidth=3;shadow=0;fillColor=#ffe6cc;strokeColor=#d79b00;align=left;spacingLeft=15;labelBorderColor=none;horizontal=1;verticalAlign=top;" vertex="1" parent="1">
          <mxGeometry x="395" y="461.25" width="220" height="50" as="geometry" />
        </mxCell>
        <mxCell id="5XFd4NHmLhsVX-3_RDAw-64" value="&lt;b&gt;this.outputter = outputter;&lt;/b&gt;&lt;br&gt;&lt;div&gt;&lt;/div&gt;" style="rounded=1;whiteSpace=wrap;html=1;fontSize=12;glass=0;strokeWidth=1;shadow=0;fillColor=#f5f5f5;strokeColor=#666666;fontColor=#333333;align=left;spacingTop=0;spacingLeft=5;" vertex="1" parent="1">
          <mxGeometry x="415" y="486.25" width="170" height="20" as="geometry" />
        </mxCell>
        <mxCell id="5XFd4NHmLhsVX-3_RDAw-65" value="&lt;b&gt;helloCall()&lt;/b&gt;&lt;br&gt;&lt;br&gt;&lt;div&gt;&lt;br&gt;&lt;/div&gt;" style="rounded=1;whiteSpace=wrap;html=1;fontSize=12;glass=0;strokeWidth=3;shadow=0;fillColor=#ffe6cc;strokeColor=#d79b00;align=left;spacingLeft=15;labelBorderColor=none;horizontal=1;verticalAlign=top;" vertex="1" parent="1">
          <mxGeometry x="395" y="521.25" width="220" height="98.75" as="geometry" />
        </mxCell>
        <mxCell id="5XFd4NHmLhsVX-3_RDAw-103" style="edgeStyle=orthogonalEdgeStyle;rounded=1;jumpSize=6;orthogonalLoop=1;jettySize=auto;html=1;exitX=0.5;exitY=1;exitDx=0;exitDy=0;entryX=0;entryY=0.5;entryDx=0;entryDy=0;endArrow=block;endFill=1;" edge="1" parent="1" source="5XFd4NHmLhsVX-3_RDAw-66" target="5XFd4NHmLhsVX-3_RDAw-77">
          <mxGeometry relative="1" as="geometry">
            <Array as="points">
              <mxPoint x="500" y="680" />
              <mxPoint x="300" y="680" />
              <mxPoint x="300" y="968" />
            </Array>
          </mxGeometry>
        </mxCell>
        <mxCell id="5XFd4NHmLhsVX-3_RDAw-66" value="&lt;b&gt;outputter.output(&lt;br&gt;&lt;/b&gt;&quot;이름=&quot; + phone&lt;br&gt;&amp;nbsp;+ &quot;\t 핸드폰 = &quot; + name&amp;nbsp;&lt;b&gt;);&lt;/b&gt;&lt;br&gt;&lt;div&gt;&lt;/div&gt;" style="rounded=1;whiteSpace=wrap;html=1;fontSize=12;glass=0;strokeWidth=1;shadow=0;fillColor=#f5f5f5;strokeColor=#666666;fontColor=#333333;align=left;spacingTop=0;spacingLeft=5;" vertex="1" parent="1">
          <mxGeometry x="415" y="546.25" width="170" height="53.75" as="geometry" />
        </mxCell>
        <mxCell id="5XFd4NHmLhsVX-3_RDAw-67" value="&lt;b&gt;method&lt;/b&gt;" style="rounded=1;whiteSpace=wrap;html=1;fontSize=12;glass=0;strokeWidth=3;shadow=0;fillColor=#ffe6cc;strokeColor=#d79b00;align=center;spacingLeft=0;labelBorderColor=none;horizontal=1;verticalAlign=middle;spacing=0;" vertex="1" parent="1">
          <mxGeometry y="60" width="50" height="20" as="geometry" />
        </mxCell>
        <mxCell id="5XFd4NHmLhsVX-3_RDAw-70" value="&lt;font&gt;&lt;span style=&quot;font-size: 15px&quot;&gt;&lt;b&gt;FileOutputter&lt;/b&gt;&lt;/span&gt;&lt;b style=&quot;font-size: 15px&quot;&gt;.java&lt;/b&gt;&lt;/font&gt;" style="rounded=1;whiteSpace=wrap;html=1;fontSize=12;glass=0;strokeWidth=3;shadow=0;fillColor=#dae8fc;strokeColor=#6c8ebf;" vertex="1" parent="1">
          <mxGeometry x="400" y="700" width="190" height="30" as="geometry" />
        </mxCell>
        <mxCell id="5XFd4NHmLhsVX-3_RDAw-71" value="&lt;div&gt;&lt;b&gt;setFilePath&lt;/b&gt;(String filePath)&lt;/div&gt;&lt;br&gt;&lt;div&gt;&lt;br&gt;&lt;/div&gt;" style="rounded=1;whiteSpace=wrap;html=1;fontSize=12;glass=0;strokeWidth=3;shadow=0;fillColor=#ffe6cc;strokeColor=#d79b00;align=left;spacingLeft=15;labelBorderColor=none;horizontal=1;verticalAlign=top;" vertex="1" parent="1">
          <mxGeometry x="390" y="757.5" width="220" height="50" as="geometry" />
        </mxCell>
        <mxCell id="5XFd4NHmLhsVX-3_RDAw-72" value="&lt;b&gt;this.filePath = filePath;&lt;/b&gt;&lt;br&gt;&lt;div&gt;&lt;/div&gt;" style="rounded=1;whiteSpace=wrap;html=1;fontSize=12;glass=0;strokeWidth=1;shadow=0;fillColor=#f5f5f5;strokeColor=#666666;fontColor=#333333;align=left;spacingTop=0;spacingLeft=5;" vertex="1" parent="1">
          <mxGeometry x="410" y="782.5" width="170" height="20" as="geometry" />
        </mxCell>
        <mxCell id="5XFd4NHmLhsVX-3_RDAw-73" value="&lt;span&gt;&lt;b&gt;setFileName&lt;/b&gt;(String fileName)&lt;/span&gt;&lt;b&gt;&lt;br&gt;&lt;/b&gt;&lt;br&gt;&lt;div&gt;&lt;br&gt;&lt;/div&gt;" style="rounded=1;whiteSpace=wrap;html=1;fontSize=12;glass=0;strokeWidth=3;shadow=0;fillColor=#ffe6cc;strokeColor=#d79b00;align=left;spacingLeft=15;labelBorderColor=none;horizontal=1;verticalAlign=top;" vertex="1" parent="1">
          <mxGeometry x="390" y="817.5" width="220" height="50" as="geometry" />
        </mxCell>
        <mxCell id="5XFd4NHmLhsVX-3_RDAw-74" value="&lt;b&gt;this.fileName = fileName;&lt;/b&gt;&lt;br&gt;&lt;div&gt;&lt;/div&gt;" style="rounded=1;whiteSpace=wrap;html=1;fontSize=12;glass=0;strokeWidth=1;shadow=0;fillColor=#f5f5f5;strokeColor=#666666;fontColor=#333333;align=left;spacingTop=0;spacingLeft=5;" vertex="1" parent="1">
          <mxGeometry x="410" y="842.5" width="170" height="20" as="geometry" />
        </mxCell>
        <mxCell id="5XFd4NHmLhsVX-3_RDAw-77" value="&lt;b&gt;output&amp;nbsp;&lt;/b&gt;(String message)" style="rounded=1;whiteSpace=wrap;html=1;fontSize=12;glass=0;strokeWidth=3;shadow=0;fillColor=#ffe6cc;strokeColor=#d79b00;align=left;spacingLeft=15;labelBorderColor=none;horizontal=1;verticalAlign=top;" vertex="1" parent="1">
          <mxGeometry x="380" y="887.5" width="250" height="160" as="geometry" />
        </mxCell>
        <mxCell id="5XFd4NHmLhsVX-3_RDAw-78" value="&lt;b&gt;FileWriter &lt;/b&gt;fileWriter &lt;br&gt;&lt;b&gt;= new FileWriter(&lt;/b&gt;filePath&lt;b&gt;+&lt;/b&gt;fileName&lt;b&gt;);&lt;/b&gt;&lt;br&gt;&lt;div&gt;&lt;/div&gt;" style="rounded=1;whiteSpace=wrap;html=1;fontSize=12;glass=0;strokeWidth=1;shadow=0;fillColor=#f5f5f5;strokeColor=#666666;fontColor=#333333;align=left;spacingTop=0;spacingLeft=5;" vertex="1" parent="1">
          <mxGeometry x="400" y="917.5" width="210" height="40" as="geometry" />
        </mxCell>
        <mxCell id="5XFd4NHmLhsVX-3_RDAw-79" value="&lt;b&gt;fileWriter.write(&lt;/b&gt;message&lt;b&gt;);&lt;/b&gt;&lt;br&gt;&lt;div&gt;&lt;/div&gt;" style="rounded=1;whiteSpace=wrap;html=1;fontSize=12;glass=0;strokeWidth=1;shadow=0;fillColor=#f5f5f5;strokeColor=#666666;fontColor=#333333;align=left;spacingTop=0;spacingLeft=5;" vertex="1" parent="1">
          <mxGeometry x="400" y="967.5" width="210" height="30" as="geometry" />
        </mxCell>
        <mxCell id="5XFd4NHmLhsVX-3_RDAw-80" value="&lt;b&gt;fileWriter.close();&lt;/b&gt;&lt;br&gt;&lt;div&gt;&lt;/div&gt;" style="rounded=1;whiteSpace=wrap;html=1;fontSize=12;glass=0;strokeWidth=1;shadow=0;fillColor=#f5f5f5;strokeColor=#666666;fontColor=#333333;align=left;spacingTop=0;spacingLeft=5;" vertex="1" parent="1">
          <mxGeometry x="400" y="1007.5" width="210" height="30" as="geometry" />
        </mxCell>
        <mxCell id="5XFd4NHmLhsVX-3_RDAw-97" style="edgeStyle=orthogonalEdgeStyle;curved=1;jumpSize=6;orthogonalLoop=1;jettySize=auto;html=1;exitX=0.5;exitY=0;exitDx=0;exitDy=0;entryX=0;entryY=0.5;entryDx=0;entryDy=0;endArrow=block;endFill=1;" edge="1" parent="1" source="5XFd4NHmLhsVX-3_RDAw-7" target="5XFd4NHmLhsVX-3_RDAw-31">
          <mxGeometry relative="1" as="geometry">
            <Array as="points">
              <mxPoint x="175" y="180" />
              <mxPoint x="690" y="180" />
              <mxPoint x="690" y="545" />
            </Array>
          </mxGeometry>
        </mxCell>
      </root>
    </mxGraphModel>
  </diagram>
</mxfile>
